<?xml version="1.0" standalone="no"?>
<!DOCTYPE svg PUBLIC "-//W3C//DTD SVG 20010904//EN"
 "http://www.w3.org/TR/2001/REC-SVG-20010904/DTD/svg10.dtd">
<svg version="1.0" xmlns="http://www.w3.org/2000/svg"
 width="176.000000pt" height="176.000000pt" viewBox="0 0 176.000000 176.000000"
 preserveAspectRatio="xMidYMid meet">
<metadata>
Created by potrace 1.14, written by Peter Selinger 2001-2017
</metadata>
<g transform="translate(0.000000,176.000000) scale(0.100000,-0.100000)"
fill="#000000" stroke="none">
<path d="M735 1740 c-270 -48 -509 -237 -627 -497 -16 -35 -26 -68 -23 -73 4
-6 1 -10 -4 -10 -12 0 -10 -28 3 -49 6 -9 5 -12 -2 -7 -7 4 -14 -9 -19 -36 -5
-24 -5 -44 -1 -46 4 -2 8 -11 8 -20 0 -15 -2 -15 -10 -2 -8 12 -10 8 -10 -15
1 -16 -1 -45 -3 -62 -3 -18 0 -33 5 -33 5 0 6 -6 2 -12 -4 -7 -4 -10 1 -6 9 8
17 67 18 135 1 23 5 39 9 37 4 -3 5 4 3 16 -2 11 1 22 6 26 6 3 8 17 4 31 -4
16 -2 22 5 18 9 -6 14 16 13 53 -1 7 2 11 5 8 3 -4 20 23 38 57 48 93 77 134
147 205 309 314 786 325 1110 25 95 -88 179 -224 217 -353 27 -92 37 -264 21
-369 -16 -101 -67 -232 -124 -318 -50 -75 -58 -94 -30 -72 10 8 1 -6 -19 -31
-39 -48 -107 -109 -166 -149 -44 -30 -54 -38 -91 -72 -17 -15 -57 -34 -95 -44
-37 -10 -69 -22 -72 -27 -3 -5 -12 -3 -20 3 -12 10 -15 10 -12 -1 4 -16 -24
-20 -34 -5 -5 6 -8 5 -8 -3 0 -7 -5 -10 -10 -7 -6 4 -17 1 -25 -5 -11 -9 -15
-9 -15 -1 0 15 -17 14 -23 -2 -11 -30 184 4 304 54 125 51 299 179 244 179 -5
0 -10 -6 -10 -12 0 -7 -4 -13 -10 -13 -17 0 -55 -31 -48 -39 4 -4 -1 -4 -11 0
-14 5 -17 4 -12 -4 4 -7 3 -12 -3 -12 -6 0 -33 -14 -61 -30 -28 -17 -56 -30
-63 -30 -7 0 13 15 44 33 199 114 354 322 400 537 6 28 13 49 16 46 11 -11
-30 -146 -67 -220 -22 -44 -37 -83 -33 -89 3 -6 1 -7 -5 -3 -7 4 -16 -3 -21
-17 -6 -14 -15 -28 -21 -32 -5 -3 -7 -12 -4 -18 4 -7 4 -9 -1 -5 -4 4 -14 1
-21 -7 -17 -17 -18 -29 -2 -19 8 4 10 3 5 -2 -5 -5 -14 -9 -20 -9 -7 -1 -11
-7 -9 -14 1 -7 -2 -10 -7 -7 -5 3 -14 -1 -20 -8 -8 -10 -9 -16 -2 -21 23 -14
142 141 189 245 67 151 90 310 71 485 -33 293 -211 539 -489 673 -47 23 -100
44 -119 47 -19 3 -37 8 -41 10 -29 18 -271 28 -345 15z m985 -860 c0 -5 -2
-10 -4 -10 -3 0 -8 5 -11 10 -3 6 -1 10 4 10 6 0 11 -4 11 -10z"/>
<path d="M980 1466 c-93 -21 -161 -46 -262 -99 -109 -56 -180 -117 -209 -180
-21 -48 -25 -123 -7 -164 18 -41 81 -115 181 -214 l88 -87 -36 -21 c-20 -11
-38 -21 -41 -21 -13 0 -124 -82 -163 -121 -77 -77 -92 -155 -39 -209 51 -54
106 -72 210 -71 151 2 254 84 249 199 -2 58 -23 105 -77 174 -24 31 -44 58
-44 61 0 3 8 7 18 10 9 4 35 13 57 22 76 30 310 105 377 121 16 3 26 10 23 14
-8 12 -285 -66 -438 -124 l-64 -24 -111 109 c-155 154 -188 227 -143 324 58
128 312 264 525 280 105 8 158 -23 150 -88 -3 -34 -19 -54 -58 -78 -25 -15
-27 -19 -13 -25 9 -3 28 1 42 10 77 51 78 157 1 198 -29 16 -152 18 -216 4z
m-84 -911 c39 -82 27 -139 -39 -189 -45 -34 -82 -47 -154 -52 -136 -10 -224
50 -208 140 11 57 88 127 235 213 l55 33 44 -48 c24 -26 55 -69 67 -97z"/>
<path d="M1451 338 c-14 -23 -14 -23 8 -4 22 20 25 26 13 26 -4 0 -13 -10 -21
-22z"/>
<path d="M875 30 c3 -5 8 -10 11 -10 2 0 4 5 4 10 0 6 -5 10 -11 10 -5 0 -7
-4 -4 -10z"/>
</g>
</svg>
